<?xml version="1.0" encoding="iso-8859-1"?>
<!-- Uploaded to: SVG Repo, www.svgrepo.com, Generator: SVG Repo Mixer Tools -->
<svg fill="#000000" height="800px" width="800px" version="1.1" id="Layer_1" xmlns="http://www.w3.org/2000/svg" xmlns:xlink="http://www.w3.org/1999/xlink" 
	 viewBox="0 0 297 297" xml:space="preserve">
<g>
	<g>
		<path d="M283.598,93.401c0-25.374-18.374-46.539-42.515-50.886C236.735,18.374,215.571,0,190.197,0
			c-17.099,0-32.279,8.349-41.697,21.179C139.082,8.349,123.902,0,106.803,0C81.429,0,60.265,18.374,55.917,42.514
			C31.776,46.862,13.402,68.027,13.402,93.4c0,8.132,2.946,22.468,10.91,30.811c-6.834,8.766-10.91,19.783-10.91,31.734
			c0,18.066,9.436,34.556,24.33,43.863c-2.295,5.915-3.482,12.231-3.482,18.682c0,17.879,9.402,34.527,24.377,43.889
			C61.843,281.948,78.983,297,99.357,297c15.484,0,37.558-16.716,49.143-26.492C160.085,280.284,182.159,297,197.643,297
			c20.374,0,37.514-15.052,40.73-34.62c14.975-9.362,24.377-26.01,24.377-43.889c0-6.452-1.187-12.767-3.482-18.682
			c14.895-9.307,24.33-25.797,24.33-43.863c0-11.951-4.076-22.968-10.91-31.734C280.651,115.869,283.598,101.532,283.598,93.401z
			 M138.492,252.725c-13.887,12.164-31.792,24.26-39.136,24.26c-11.554,0-21.089-9.4-21.255-20.955
			c-0.001-0.045-0.01-0.089-0.011-0.134c0.423-11.191,9.629-20.298,20.914-20.46c5.525-0.079,9.942-4.623,9.863-10.15
			c-0.078-5.478-4.543-9.864-10.003-9.864c-0.049,0-0.098,0-0.147,0.001c-16.184,0.232-30.187,9.934-36.735,23.745
			c-4.871-5.667-7.719-12.984-7.719-20.678c0-6.31,1.85-12.404,5.351-17.623c1.725-2.572,2.163-5.797,1.184-8.735
			c-0.978-2.938-3.261-5.258-6.183-6.283c-12.68-4.448-21.2-16.465-21.2-29.904c0-17.474,14.216-31.69,31.69-31.69
			s31.689,14.216,31.689,31.69c0,5.526,4.481,10.007,10.007,10.007s10.007-4.481,10.007-10.007c0-28.51-23.195-51.704-51.703-51.704
			c-9.31,0-18.056,2.476-25.611,6.801c-2.816-2.395-6.078-11.474-6.078-17.642c0-17.474,14.216-31.69,31.69-31.69
			c5.526,0,10.007-4.481,10.007-10.007c0-17.474,14.215-31.689,31.689-31.689s31.69,14.215,31.69,31.689V252.725z M190.198,165.952
			c5.526,0,10.007-4.481,10.007-10.007c0-17.474,14.215-31.69,31.689-31.69s31.69,14.216,31.69,31.69
			c0,13.439-8.52,25.457-21.2,29.904c-2.922,1.025-5.205,3.345-6.183,6.283c-0.978,2.938-0.54,6.163,1.184,8.735
			c3.501,5.22,5.351,11.313,5.351,17.623c0,7.695-2.848,15.012-7.719,20.679c-6.547-13.811-20.551-23.513-36.735-23.745
			c-0.049-0.001-0.098-0.001-0.147-0.001c-5.46,0-9.925,4.387-10.003,9.864c-0.079,5.526,4.337,10.071,9.863,10.15
			c11.289,0.161,20.496,9.272,20.915,20.466c-0.001,0.043-0.01,0.085-0.011,0.128c-0.165,11.554-9.7,20.955-21.255,20.955
			c-7.344,0-25.25-12.098-39.136-24.26V51.703c0-17.474,14.216-31.689,31.69-31.689s31.689,14.215,31.689,31.689
			c0,5.526,4.481,10.007,10.007,10.007c17.474,0,31.69,14.216,31.69,31.69c-0.001,6.168-3.263,15.247-6.078,17.642
			c-7.554-4.325-16.301-6.801-25.612-6.801c-28.509,0-51.703,23.195-51.703,51.704C180.191,161.471,184.672,165.952,190.198,165.952
			z"/>
	</g>
</g>
</svg>